<?xml version="1.0" encoding="UTF-8"?>
<!-- Generator: Adobe Illustrator 24.0.0, SVG Export Plug-In . SVG Version: 6.00 Build 0)  -->
<svg version="1.1" id="Layer_1" xmlns="http://www.w3.org/2000/svg" xmlns:xlink="http://www.w3.org/1999/xlink" x="0px" y="0px" viewBox="0 0 144 144" style="enable-background:new 0 0 144 144;" xml:space="preserve">
<style type="text/css">
	.st0{fill:#005DA9;}
	.st1{display:none;fill:#FFFFFF;}
	.st2{font-family:'FontAwesome5Pro-Regular';}
	.st3{font-size:67.2875px;}
	.st4{fill-rule:evenodd;clip-rule:evenodd;fill:#FFFFFF;}
</style>
<circle class="st0" cx="72" cy="72" r="63"/>
<text transform="matrix(1 0 0 1 29.9453 99.0781)" class="st1 st2 st3">TV</text>
<text transform="matrix(1 0 0 1 38.3564 94.0781)" class="st1 st2 st3"></text>
<g>
	<path class="st4" d="M107.2,110.7h-8c-0.9,0-1.6-0.7-1.6-1.6V35c0-0.9,0.7-1.6,1.6-1.6h8c10.5,9.6,17,23.4,17,38.7   C124.3,87.4,117.7,101.1,107.2,110.7z M110.2,38.4h-9.8v2.3h9.8V38.4z M110.2,42.9h-9.8v2.3h9.8V42.9z M110.2,47.9h-9.8v2.3h9.8   V47.9z M110.2,52.9h-9.8v2.3h9.8V52.9z M110.2,57.9h-9.8v2.3h9.8V57.9z M110.2,62.9h-9.8v2.3h9.8V62.9z M110.2,67.9h-9.8v2.3h9.8   V67.9z M100.3,72.9v2.3h9.8v-2.3H100.3z M85.6,43.1h10.6v58H85.8c-0.9,0-1.7-0.7-1.7-1.7V44.6C84.1,43.7,84.8,43.1,85.6,43.1z    M86.1,74.4h7.4v-1.8h-7.4V74.4z M86.1,70.7h7.4v-1.8h-7.4V70.7z M86.1,66.9h7.4v-1.8h-7.4V66.9z M86.1,63.2h7.4v-1.8h-7.4V63.2z    M86.1,59.4h7.4v-1.8h-7.4V59.4z M86.1,55.7h7.4v-1.8h-7.4V55.7z M86.1,51.9h7.4v-1.8h-7.4V51.9z M86.1,48.6h7.4v-1.8h-7.4V48.6z    M80.7,50.3h1.8v2.8h-1.8v1.3h1.8v1.2h-1.8V57h1.8v1.5h-1.8v1.3h1.8v1.5h-1.8v1.3h1.8v1.5h-1.8v1.3h1.8v1.5h-1.8v1.3h1.8v1.5h-1.8   V71h1.8v1.5h-1.8v1.3h1.8v20h-1.7c-0.9,0-1.6-0.7-1.6-1.6V51.8C79.2,51,79.8,50.3,80.7,50.3z M77.3,55.7h0.8v32.6h-0.8V55.7z    M66.3,55.7h0.8v32.6h-0.8V55.7z M61.8,73.8h1.8v-1.3h-1.8V71h1.8v-1.3h-1.8v-1.5h1.8v-1.3h-1.8v-1.5h1.8v-1.3h-1.8v-1.5h1.8v-1.3   h-1.8v-1.5h1.8v-1.3h-1.8V57h1.8v-1.3h-1.8v-1.2h1.8v-1.3h-1.8v-2.8h1.9c0.8,0,1.4,0.6,1.4,1.4v40.6c0,0.8-0.6,1.4-1.4,1.4h-1.9   V73.8z M48.1,43.1h10.6c0.8,0,1.5,0.7,1.5,1.5v54.7c0,1-0.8,1.8-1.8,1.8H48.1V43.1z M50.9,74.4h7.4v-1.8h-7.4V74.4z M50.9,70.7h7.4   v-1.8h-7.4V70.7z M50.9,66.9h7.4v-1.8h-7.4V66.9z M50.9,63.2h7.4v-1.8h-7.4V63.2z M50.9,59.4h7.4v-1.8h-7.4V59.4z M50.9,55.7h7.4   v-1.8h-7.4V55.7z M50.9,51.9h7.4v-1.8h-7.4V51.9z M50.9,48.6h7.4v-1.8h-7.4V48.6z M19.3,72c0-15.3,6.6-29.1,17-38.7h8.9   c0.8,0,1.5,0.7,1.5,1.5v74.4c0,0.8-0.6,1.4-1.4,1.4h-8.9C25.9,101.1,19.3,87.4,19.3,72z M44,38.4h-9.8v2.3H44V38.4z M44,42.9h-9.8   v2.3H44V42.9z M44,47.9h-9.8v2.3H44V47.9z M44,52.9h-9.8v2.3H44V52.9z M44,57.9h-9.8v2.3H44V57.9z M44,62.9h-9.8v2.3H44V62.9z    M44,67.9h-9.8v2.3H44V67.9z M44,72.9h-9.8v2.3H44V72.9z"/>
</g>
<path class="st4" d="M67.2,88.4h-0.5V55.7H67c0.7,0,1.2,0.6,1.2,1.2v30.2C68.3,87.9,67.8,88.4,67.2,88.4z"/>
<path class="st4" d="M77.2,55.7h0.5v32.6h-0.4c-0.7,0-1.2-0.6-1.2-1.2V56.9C76.1,56.3,76.6,55.7,77.2,55.7z"/>
</svg>